<?xml version="1.0" encoding="UTF-8"?><svg id="Layer_1" xmlns="http://www.w3.org/2000/svg" xmlns:xlink="http://www.w3.org/1999/xlink" viewBox="0 0 50 49.8"><defs><style>.cls-1{fill:url(#linear-gradient);}.cls-1,.cls-2,.cls-3,.cls-4,.cls-5,.cls-6{stroke-width:0px;}.cls-2{fill:#fff;isolation:isolate;opacity:.4;}.cls-3{fill:url(#linear-gradient-5);}.cls-4{fill:url(#linear-gradient-2);}.cls-5{fill:url(#linear-gradient-3);}.cls-6{fill:url(#linear-gradient-4);}</style><linearGradient id="linear-gradient" x1="28.3" y1="40.2" x2="12.5" y2="28.4" gradientTransform="translate(0 51.6) scale(1 -1)" gradientUnits="userSpaceOnUse"><stop offset="0" stop-color="#00a4e2"/><stop offset="1" stop-color="#44ade2"/></linearGradient><linearGradient id="linear-gradient-2" x1="17.8" y1="29.1" x2="18" y2="14.8" gradientTransform="translate(0 51.6) scale(1 -1)" gradientUnits="userSpaceOnUse"><stop offset="0" stop-color="#156d38"/><stop offset="1" stop-color="#64bb46"/></linearGradient><linearGradient id="linear-gradient-3" x1="14.4" y1="13.3" x2="23.8" y2="13.3" gradientTransform="translate(0 51.6) scale(1 -1)" gradientUnits="userSpaceOnUse"><stop offset="0" stop-color="#1a2c17"/><stop offset="1" stop-color="#246130"/></linearGradient><linearGradient id="linear-gradient-4" x1="22.6" y1="31" x2="45.8" y2="22.7" gradientTransform="translate(0 51.6) scale(1 -1)" gradientUnits="userSpaceOnUse"><stop offset="0" stop-color="#263b8b"/><stop offset="1" stop-color="#0099cd"/><stop offset="1" stop-color="#2a3688"/></linearGradient><linearGradient id="linear-gradient-5" x1="43.9" y1="11.6" x2="44" y2="4.9" gradientTransform="translate(0 51.6) scale(1 -1)" gradientUnits="userSpaceOnUse"><stop offset="0" stop-color="#1d7e8d"/><stop offset="1" stop-color="#39c5f3"/></linearGradient></defs><path class="cls-1" d="M13.8,2.7C5.6,6.7,0,15.1,0,24.9s.7,6.8,2,9.8c1-11,8.4-19.9,18-21.9,1.5-.6,3.1-.9,4.8-.9,7.1,0,12.8,5.6,13,12.7-.2-11.8-10.8-21.3-24-21.8Z"/><path class="cls-4" d="M2,34.6c3.8,8.8,12.6,15,22.8,15h8.3c0,0,1.1.2,1.1.2h0c-12.9-1.4-22.5-11.6-22.2-22.9,0-.6-.1-1.3-.1-2,0-5.5,3.4-10.2,8.2-12.1C10.4,14.7,3,23.6,2,34.6Z"/><path class="cls-5" d="M33.5,49.7c.6,0,.5-.5.5-1.1h0v-5.1c0-3-1.4-4.6-4.4-4.6h-.9l-3.9-.5c-6.6,0-12.2-5-13.2-11.3-.2,11.4,9.1,21.1,21.9,22.7Z"/><path class="cls-6" d="M24.8,0c-4,0-7.7.9-11,2.6,13.2.5,23.8,10.1,24,21.8,0,.1.2,13.4.2,13.4v10.4h0c0,.3,0,.5.1.7,6.5-3.2,10.4-9.7,11.4-17.1,0,0,0-6.4,0-6.4,0-.2,0-.4,0-.6,0-13.7-11.1-24.8-24.8-24.8Z"/><path class="cls-3" d="M49.4,31.8c-1.4,7.4-4.9,13.9-11.5,17.2.2.2.7.4.9.4h.8c.2,0,.7,0,.9-.1,6.1-1.4,9.5-5.7,9.5-11.2l-.6-6.2Z"/><path class="cls-2" d="M3.6,24.9C3.6,14.4,11.3,5.7,21.3,4c-2.4-.8-4.9-1.2-7.6-1.4C5.6,6.7,0,15.1,0,24.9s.7,6.8,2,9.8c.2-2.6.9-5.1,1.8-7.4,0-.8-.1-1.5-.1-2.3Z"/><path class="cls-2" d="M3.8,27.2c-.9,2.3-1.5,4.8-1.8,7.4,3.8,8.8,12.6,15,22.8,15h8.3c0,0,1.1.2,1.1.2,0,0-.1-.1-.1-.1-4,0-7.6-1.7-10.8-3.7-10.2-.7-18.4-8.7-19.5-18.8Z"/><path class="cls-2" d="M23.2,45.9c3.2,1.9,6.3,3.2,10.4,3.7.6,0,.4-.5.4-1.1h0v-5.2s-5.9,2.6-9.7,2.6c-.5,0-.5,0-1.1,0Z"/><path class="cls-2" d="M49.5,31.8s0-6.8,0-7C49.5,11.1,38.5,0,24.8,0s-7.7.9-11,2.6c2.7.1,5.2.6,7.6,1.4,1.1-.2,2.3-.3,3.4-.3,11.7,0,21.2,9.5,21.2,21.1,0,6.8-3.1,12.8-8.1,16.7v6.7h0c0,.3,0,.5.1.7,6.5-3.2,10.5-9.7,11.4-17.1Z"/></svg>